<svg xmlns="http://www.w3.org/2000/svg" fill="none" viewBox="0 0 259 253" height="253" width="259">
<path fill="#FFF200" d="M233.28 247.91H170.51V2.99003H224.33C228.456 2.98345 232.542 3.79114 236.354 5.3668C240.167 6.94247 243.631 9.25512 246.548 12.1722C249.465 15.0893 251.778 18.5534 253.354 22.366C254.929 26.1786 255.737 30.2647 255.73 34.39V225.45C255.725 231.403 253.358 237.112 249.15 241.322C244.941 245.533 239.234 247.902 233.28 247.91Z"></path>
<path fill="#FFF200" d="M93.2801 249.08H30.5801C23.1589 249.064 16.0462 246.109 10.7986 240.862C5.55101 235.614 2.59593 228.501 2.58008 221.08V32.9C2.57742 24.8161 5.78414 17.0618 11.4956 11.3409C17.2071 5.62006 24.9562 2.40062 33.0401 2.39001H101.86V249.08H93.2801Z"></path>
<path fill="#ED1C24" d="M171.44 3.95001H87.3501V248.27H171.44V3.95001Z"></path>
<path stroke-width="5.37" stroke="white" d="M33.4902 249.77H225.22C233.391 249.767 241.226 246.52 247.003 240.743C252.781 234.966 256.028 227.131 256.03 218.96V33.5C256.028 25.3295 252.781 17.4944 247.003 11.717C241.226 5.93955 233.391 2.69265 225.22 2.69H33.4902C25.3197 2.69265 17.4846 5.93955 11.7071 11.717C5.92972 17.4944 2.68283 25.3295 2.68018 33.5V219.08C2.70929 227.231 5.96849 235.039 11.7436 240.791C17.5188 246.544 25.3388 249.773 33.4902 249.77Z"></path>
<path fill="#231F20" d="M212.98 216.65H214.98V212.77H217.37C218.04 212.77 218.56 213.07 218.56 213.77V215.71C218.557 216.032 218.663 216.346 218.86 216.6H221.02V216.23C220.8 216.08 220.65 216.01 220.65 215.41C220.65 214.81 220.57 213.62 220.57 213.25C220.5 212.35 219.83 212.13 219.45 211.9C219.785 211.769 220.083 211.559 220.318 211.287C220.553 211.015 220.719 210.69 220.8 210.34C220.974 209.701 220.946 209.023 220.72 208.4C220.563 207.936 220.262 207.533 219.861 207.251C219.461 206.969 218.98 206.821 218.49 206.83H213.04V216.68L212.98 216.65ZM214.98 208.52H217.66C218.56 208.52 218.86 208.89 218.86 209.64C218.884 209.817 218.871 209.998 218.823 210.17C218.775 210.342 218.692 210.503 218.58 210.642C218.467 210.782 218.328 210.897 218.17 210.981C218.012 211.065 217.838 211.115 217.66 211.13H214.9V208.52H214.98Z"></path>
<path stroke-miterlimit="3.86" stroke-width="1.48" stroke="#231F20" d="M216.79 203.08C218.487 203.08 220.146 203.583 221.557 204.526C222.968 205.469 224.067 206.809 224.717 208.377C225.366 209.944 225.536 211.67 225.205 213.334C224.874 214.998 224.057 216.527 222.857 217.727C221.657 218.927 220.128 219.744 218.464 220.075C216.799 220.406 215.074 220.236 213.507 219.587C211.939 218.937 210.599 217.838 209.656 216.427C208.713 215.016 208.21 213.357 208.21 211.66C208.21 210.533 208.432 209.418 208.863 208.377C209.294 207.336 209.926 206.39 210.723 205.593C211.52 204.796 212.466 204.164 213.507 203.733C214.548 203.302 215.663 203.08 216.79 203.08Z"></path>
<path fill="white" d="M87.06 193.45C86.53 193.22 86.06 193 85.64 192.77C83.7681 191.685 82.0608 190.338 80.57 188.77C77.081 185.431 74.0542 181.641 71.57 177.5C68.8222 172.884 67.0459 167.756 66.35 162.43C66.2 161.43 66.13 160.34 66.05 159.22L65.98 157.73L65.75 154.73L68.75 156.14C68.9448 156.197 69.1231 156.3 69.27 156.44C72.3894 158.26 75.2092 160.55 77.63 163.23C81.6361 167.471 84.8441 172.4 87.1 177.78C88.9401 182.107 89.977 186.732 90.16 191.43V194.79L87.06 193.45Z"></path>
<path fill="white" d="M166.88 193.75C166.619 192.599 166.568 191.41 166.73 190.24C167.243 186.702 168.274 183.258 169.79 180.02C171.155 176.634 172.881 173.405 174.94 170.39C178.548 165.256 183.264 160.997 188.74 157.93L188.81 157.86L189.11 157.71L191.57 156.71L191.65 159.25C191.45 165.839 189.549 172.264 186.13 177.9C182.151 184.956 176.326 190.795 169.28 194.79L167.28 195.91L166.88 193.75Z"></path>
<path fill="white" d="M189.34 199.42C187.591 199.387 185.845 199.26 184.11 199.04C180.74 198.574 177.4 197.907 174.11 197.04L172.69 196.74C172.54 196.66 172.39 196.66 172.24 196.59L170.15 195.85L171.2 193.9C171.841 192.959 172.68 192.17 173.66 191.59C175.963 190.147 178.448 189.017 181.05 188.23C184.884 186.887 188.866 186.01 192.91 185.62C194.85 185.47 196.64 185.4 198.35 185.4C202.627 185.328 206.886 185.956 210.96 187.26C211.48 187.41 211.96 187.56 212.6 187.71L213.6 187.94L215.99 188.53L214.57 190.53L214.35 190.9C214.142 191.263 213.89 191.599 213.6 191.9C212.49 192.961 211.204 193.82 209.8 194.44C206.184 196.038 202.405 197.239 198.53 198.02C196.22 198.54 194.43 198.91 192.79 199.14C191.659 199.352 190.51 199.453 189.36 199.44"></path>
<path fill="white" d="M175.98 210.83C173.725 210.837 171.477 210.585 169.28 210.08C166 209.34 162.79 208.59 159.58 207.55C158.018 206.991 156.498 206.322 155.03 205.55C154.36 205.25 153.76 204.88 153.09 204.55C152.42 204.22 151.89 204.03 151.22 203.73L147.28 202.08L150.11 200.36L150.34 200.21C150.708 199.94 151.108 199.715 151.53 199.54L152.8 199.17C154.271 198.69 155.766 198.29 157.28 197.97C160.28 197.38 163.28 196.97 166.08 196.63C166.674 196.564 167.272 196.537 167.87 196.55C169.243 196.595 170.612 196.722 171.97 196.93C176.699 197.57 181.335 198.772 185.78 200.51C187.434 201.171 189.03 201.971 190.55 202.9C191.158 203.294 191.709 203.768 192.19 204.31L192.49 204.69C192.73 204.998 192.932 205.333 193.09 205.69L194.21 208.07L191.59 208.3C189.377 208.458 187.194 208.909 185.1 209.64L184.1 209.94C181.438 210.587 178.709 210.922 175.97 210.94"></path>
<path fill="white" d="M79.4499 60.95C78.8736 60.9433 78.2986 60.8932 77.7299 60.8C77.3104 60.764 76.9069 60.6221 76.5572 60.3878C76.2074 60.1534 75.9227 59.8342 75.7299 59.46C75.5468 59.0813 75.4696 58.6601 75.5066 58.2411C75.5436 57.822 75.6933 57.4208 75.9399 57.08C76.4994 56.0263 77.1485 55.0226 77.8799 54.08C80.4561 51.1265 83.2651 48.3844 86.2799 45.88C90.9681 41.8581 96.3171 38.6779 102.09 36.48C103.923 35.7886 105.823 35.2893 107.76 34.99C107.939 34.9966 108.118 34.9729 108.29 34.92L111.05 34.77L110.15 37.3C109.998 37.7091 109.825 38.1097 109.63 38.5C107.93 42.5335 105.564 46.2521 102.63 49.5C99.3737 53.1801 95.2778 56.0204 90.6899 57.78L90.2399 57.93C87.1477 59.2103 83.9204 60.1362 80.6199 60.69C80.261 60.9041 79.8473 61.0083 79.4299 60.99"></path>
<path fill="white" d="M211.34 126.01C211.34 125.33 211.42 124.74 211.42 124.01C211.796 118.743 213.271 113.613 215.75 108.95C217.093 106.481 218.717 104.176 220.59 102.08C222.238 100.105 224.062 98.2842 226.04 96.64C226.64 96.19 229.7 94.1 230.97 93.88L232.9 93.58L232.98 95.52C233.435 103.688 230.916 111.745 225.89 118.2C222.46 122.75 216.42 128.12 213.21 128.49L211.21 128.72L211.34 126.01Z"></path>
<path fill="white" d="M48.1596 112.18C46.8896 111.88 45.3996 112.3 44.7996 111.63C43.1596 109.98 41.3396 104.76 40.5196 103.04C38.7996 99.31 38.7096 94.97 37.8196 90.35C37.0137 86.0892 37.1709 81.7022 38.2796 77.51C38.5796 76.39 38.8096 75.2 39.1096 74.01L40.1096 69.75L42.2796 71.32C42.4919 71.4529 42.6926 71.6034 42.8796 71.77C44.1277 73.0675 45.2093 74.5153 46.0996 76.08C48.5659 80.1995 50.4473 84.6421 51.6896 89.28C52.3825 92.0688 52.4338 94.9785 51.8396 97.79C51.4696 100.1 51.0996 102.41 50.8396 104.72L50.3896 107.93C50.3896 108.08 49.9396 110.24 49.9396 110.24L48.1596 112.18Z"></path>
<path fill="white" d="M62.9598 72.81C62.2055 72.0266 61.6889 71.0453 61.4698 69.98C61.0338 67.8453 60.9325 65.6558 61.1698 63.49C61.5808 59.1359 62.5315 54.8497 63.9998 50.73C65.4323 46.625 67.7818 42.9006 70.8698 39.84L73.3298 37.15L76.2398 33.95L77.2398 36.41C77.3744 36.6162 77.4757 36.8423 77.5398 37.08C78.0094 38.8545 78.2348 40.6847 78.2098 42.52C78.314 47.332 77.7109 52.1333 76.4198 56.77C75.6038 59.5009 74.205 62.0223 72.3198 64.16C70.8298 65.95 69.3198 67.82 67.9198 69.61L65.9198 72.14C65.8498 72.29 65.6998 72.37 65.5498 72.52L64.2798 73.86L62.9598 72.81Z"></path>
<path fill="white" d="M180.91 60.95C180.508 60.9619 180.107 60.9385 179.71 60.88C176.408 60.3087 173.182 59.3695 170.09 58.08L169.64 57.93C165.044 56.1843 160.945 53.3418 157.7 49.65C154.794 46.3802 152.431 42.6666 150.7 38.65C150.55 38.43 149.06 34.85 149.06 34.85L151.82 34.99C152.046 34.9609 152.276 34.9883 152.49 35.07C154.477 35.3488 156.421 35.8728 158.28 36.63C164.007 38.7969 169.308 41.9551 173.94 45.96C176.993 48.4876 179.839 51.2566 182.45 54.24C183.199 55.1696 183.849 56.175 184.39 57.24C184.602 57.5967 184.733 57.9965 184.771 58.4101C184.809 58.8237 184.754 59.2405 184.61 59.63C184.417 60.0043 184.132 60.3235 183.782 60.5578C183.433 60.7921 183.029 60.934 182.61 60.97C182.063 60.935 181.516 60.935 180.97 60.97"></path>
<path fill="white" d="M188.22 76.02C184.299 75.9841 180.413 75.2772 176.73 73.93C172.821 72.5527 169.12 70.6449 165.73 68.26C163.252 66.6294 161.06 64.6023 159.24 62.26C158.94 61.89 158.71 61.44 158.42 61L156.63 58.16L160.06 57.64C161.47 57.4651 162.889 57.365 164.31 57.34C166.945 57.3475 169.572 57.6493 172.14 58.24C177.532 59.5789 182.653 61.8351 187.28 64.91C189.769 66.4181 192.01 68.3039 193.92 70.5C194.696 71.3813 195.303 72.3984 195.71 73.5L196.61 75.88H192.06C191.658 75.8668 191.256 75.8936 190.86 75.96C189.97 76.03 189.07 76.03 188.18 76.03"></path>
<path fill="white" d="M194.86 72.74L196.13 71.62L194.71 72.62L194.33 72.25L192.4 69.71C190.9 67.84 189.49 66.05 187.99 64.26C186.095 62.1327 184.695 59.6125 183.89 56.88C182.599 52.2431 181.996 47.442 182.1 42.63C182.075 40.7914 182.3 38.9579 182.77 37.18C182.831 36.9792 182.905 36.7822 182.99 36.59L184.11 34.27L185.9 36.08L187.02 37.35L189.49 40.04C192.591 43.0881 194.94 46.8166 196.35 50.93C197.785 55.0591 198.735 59.3413 199.18 63.69C199.488 65.853 199.387 68.0547 198.88 70.18C198.661 71.2453 198.144 72.2266 197.39 73.01L196.05 74.36L194.86 72.74Z"></path>
<path fill="white" d="M208.66 110.08C208.51 109.41 208.29 108.74 208.14 108.08C207.281 104.821 206.99 101.438 207.28 98.08C207.482 93.0604 208.779 88.1457 211.08 83.68C212.056 81.8924 213.124 80.1568 214.28 78.48C214.73 77.81 215.28 77.07 215.7 76.39C216 75.95 218.39 72.29 218.39 72.29L220.1 74.6C220.324 74.8834 220.524 75.1844 220.7 75.5C221.458 77.0192 221.939 78.6617 222.12 80.35C222.595 83.1335 222.719 85.9656 222.49 88.78C221.974 93.3315 220.714 97.7672 218.76 101.91C217.59 104.808 215.977 107.507 213.98 109.91C213.548 110.42 213.077 110.895 212.57 111.33L211.9 111.92L209.7 114.08L208.66 110.08Z"></path>
<path fill="white" d="M44.2796 125.48C43.8296 125.26 43.4596 125.03 43.0096 124.81C41.1124 123.541 39.3617 122.065 37.7896 120.41C35.7551 118.443 33.8699 116.327 32.1496 114.08C30.2485 111.323 28.7877 108.286 27.8196 105.08C26.4537 101.125 25.8233 96.9525 25.9596 92.77L26.2496 89.48L28.6396 90.75L29.4596 91.2C30.0576 91.4889 30.6327 91.8233 31.1796 92.2C33.1424 93.5576 34.944 95.1344 36.5496 96.9C38.3546 98.704 39.979 100.68 41.3996 102.8C43.2209 105.803 44.627 109.039 45.5796 112.42C46.6726 115.989 47.2748 119.689 47.3696 123.42V126.92L44.2796 125.48Z"></path>
<path fill="white" d="M52.3598 89.75L51.4698 86.69L50.9498 84.9C50.5798 83.63 50.1298 82.36 49.8298 81.09C49.3526 78.959 49.1012 76.7837 49.0798 74.6V73.08C49.0798 71.36 49.0098 69.57 49.1598 67.78C49.4284 64.8905 50.1435 62.0602 51.2798 59.39C52.0842 57.0673 53.1867 54.8588 54.5598 52.82C54.7829 52.5045 55.0303 52.207 55.2998 51.93L57.7398 49.08L58.6298 52.21C59.0287 53.5777 59.5267 54.9146 60.1198 56.21C60.9347 57.9795 61.5614 59.8296 61.9898 61.73C62.2215 62.832 62.3454 63.954 62.3598 65.08C62.4398 67.01 62.4398 69.55 62.3598 72.16C62.1827 75.147 61.5556 78.0902 60.4998 80.89C59.7241 83.3227 58.6986 85.6685 57.4398 87.89C57.0598 88.49 56.6898 89.01 56.3198 89.54L56.1698 89.76C56.0063 90.0182 55.7744 90.2259 55.4998 90.36L53.4998 92.07L52.3598 89.75Z"></path>
<path fill="white" d="M48.9299 147.64C47.6955 147.481 46.5054 147.076 45.4299 146.45C43.0361 145.096 40.8078 143.469 38.7899 141.6C36.7726 139.914 34.9451 138.012 33.3399 135.93C31.0816 132.985 29.3401 129.678 28.1899 126.15C27.8156 124.878 27.5118 123.586 27.2799 122.28C27.1299 121.6 27.0499 120.93 26.9099 120.34C26.7599 119.59 26.5299 118.77 26.3099 118.02L25.1899 113.62L28.9399 115.08C29.4543 115.233 29.9531 115.434 30.4299 115.68C32.8538 116.801 35.0927 118.285 37.0699 120.08C40.1299 122.84 43.7099 125.38 45.5799 128.14C47.9599 131.65 48.4899 135.67 49.3799 139.93C49.6099 141.12 49.9799 142.39 50.2799 143.58L50.7999 145.58V145.95L50.7199 147.74L48.9299 147.64Z"></path>
<path fill="white" d="M54.9799 163.08L53.9799 162.93C53.2272 162.847 52.4795 162.723 51.7399 162.56C46.4483 161.265 41.4568 158.959 37.0399 155.77C35.6863 154.727 34.4158 153.58 33.2399 152.34L32.4899 151.6C30.5784 149.703 28.8538 147.627 27.3399 145.4C26.313 143.963 25.5105 142.378 24.9599 140.7C24.8799 140.4 24.8099 140.1 24.7299 139.81L24.1299 137.05L26.5199 137.34C26.8199 137.34 27.0399 137.42 27.1899 137.42C31.2626 138.278 35.2367 139.552 39.0499 141.22C41.7793 142.337 44.2428 144.017 46.2799 146.15C46.9379 146.906 47.6356 147.627 48.3699 148.31C49.7199 149.73 51.0599 151.15 52.3699 152.64C54.3413 154.837 55.818 157.433 56.6999 160.25L57.5999 163.61L54.9799 163.08Z"></path>
<path fill="white" d="M203.96 92.43L203.59 92.06L202.69 90.94C201.299 88.7206 200.245 86.3079 199.56 83.78C198.71 81.0251 198.084 78.2059 197.69 75.35C197.397 72.7422 197.475 70.1061 197.92 67.52C198.42 64.1497 199.296 60.8459 200.53 57.67C201.065 56.408 201.736 55.2077 202.53 54.09L203.87 52.37L205.28 54.08C206.337 55.4813 207.167 57.0404 207.74 58.7C209.063 61.3227 210.042 64.1059 210.65 66.98C211.018 69.274 211.169 71.5976 211.1 73.92C211.103 76.7936 210.726 79.655 209.98 82.43C209.6 83.55 209.23 84.67 208.86 85.79C208.63 86.53 208.33 87.2 208.11 87.95C207.89 88.7 207.67 89.52 207.44 90.34L207.07 91.53L205.95 94.66L203.96 92.43Z"></path>
<path fill="white" d="M60.8 167.19C60.3411 167.179 59.8962 167.031 59.5233 166.763C59.1504 166.495 58.8669 166.121 58.71 165.69C58.18 164.69 57.66 163.69 57.07 162.69L56.62 162.02C55.2335 160.177 54.1281 158.138 53.34 155.97C52.81 154.33 52.34 152.54 51.77 150.46C50.6156 146.004 50.2768 141.376 50.77 136.8C50.9433 135.442 51.2413 134.103 51.66 132.8C51.81 132.28 51.96 131.8 52.11 131.31C52.26 130.82 52.33 130.31 52.48 129.89L53.01 128.17L54.2 128.1H54.8C55.2589 128.102 55.7072 128.238 56.0907 128.49C56.4741 128.742 56.7761 129.1 56.96 129.52C57.63 130.78 58.23 131.9 58.9 132.95L60.39 135.56C61.06 136.75 61.73 137.95 62.39 139.14C63.6108 141.769 64.3201 144.606 64.48 147.5C64.62 149.21 64.77 151 64.85 152.72C64.92 153.54 64.92 154.36 65 155.18C65.1227 157.046 64.8954 158.918 64.33 160.7C64.03 161.9 62.61 166.97 62.61 166.97L61.49 167.12H60.75"></path>
<path fill="white" d="M208.81 135.26L208.21 134.88L206.87 133.99C203.859 131.589 201.284 128.686 199.26 125.41C197.235 122.469 195.768 119.181 194.93 115.71C194.38 113.06 194.155 110.354 194.26 107.65V101.16L195.75 99.75L197.02 100.19L197.47 100.42C197.918 100.621 198.344 100.869 198.74 101.16C200.596 102.491 202.21 104.132 203.51 106.01C205.968 109.126 207.987 112.565 209.51 116.23C210.67 119.155 211.304 122.264 211.38 125.41C211.45 127.27 211.45 129.14 211.45 131V133.84L211.15 136.75L208.81 135.26Z"></path>
<path fill="#231F20" d="M196.13 101.76C196.673 102.015 197.194 102.312 197.69 102.65C199.373 103.914 200.856 105.425 202.09 107.13C204.45 110.117 206.407 113.402 207.91 116.9C208.982 119.64 209.587 122.54 209.7 125.48C209.78 128.09 209.78 130.7 209.78 133.32C209.783 133.497 209.756 133.672 209.7 133.84C209.03 133.39 208.43 133.02 207.91 132.65C205.061 130.358 202.614 127.607 200.67 124.51C198.755 121.729 197.366 118.621 196.57 115.34C196.052 112.811 195.827 110.231 195.9 107.65V101.91C195.982 101.868 196.059 101.818 196.13 101.76ZM195.68 97.51L193.81 99.15L193.66 99.3L192.54 100.3V107.61C192.466 110.466 192.718 113.321 193.29 116.12C194.17 119.79 195.741 123.258 197.92 126.34C200.051 129.762 202.758 132.79 205.92 135.29C206.362 135.666 206.837 136 207.34 136.29C207.527 136.431 207.724 136.558 207.93 136.67L212.78 139.87L213.38 134.13V133.98C213.435 133.734 213.458 133.482 213.45 133.23V130.99C213.45 129.13 213.45 127.26 213.38 125.4C213.274 122.053 212.598 118.749 211.38 115.63C209.772 111.842 207.652 108.292 205.08 105.08C203.628 103.071 201.862 101.308 199.85 99.86C199.378 99.5443 198.879 99.2699 198.36 99.04L197.92 98.82L195.68 97.51Z"></path>
<path fill="white" d="M72.66 185.24L69.37 184.49L67.28 184.08C65.87 183.78 64.45 183.55 63.11 183.18C60.3918 182.452 57.8181 181.265 55.5 179.67C50.8467 176.708 46.7538 172.947 43.41 168.56C42.2537 167.089 41.3698 165.422 40.8 163.64C40.73 163.49 39.98 160.73 39.98 160.73H42.22C44.0027 160.736 45.7797 160.933 47.52 161.32C53.9489 162.865 59.9429 165.85 65.05 170.05C67.5061 171.957 69.6897 174.191 71.54 176.69C72.874 178.413 73.8899 180.36 74.54 182.44C74.62 182.59 74.62 182.73 74.69 182.88L75.29 185.57L72.66 185.24Z"></path>
<path fill="white" d="M51.4697 101.39C51.4553 100.219 51.6587 99.0562 52.0697 97.96C53.0039 95.2131 54.3896 92.6411 56.1697 90.35C59.3502 85.7824 63.3148 81.8144 67.8797 78.63C71.2167 76.301 74.9414 74.5843 78.8797 73.56L82.2397 72.81L81.7197 75.42L81.5697 76.1C81.5083 76.6037 81.408 77.1018 81.2697 77.59C80.438 80.429 79.1256 83.1045 77.3897 85.5C75.1159 88.9558 72.3882 92.0905 69.2797 94.82C65.6961 98.0678 61.4424 100.488 56.8197 101.91C56.2607 102.074 55.7129 102.275 55.1797 102.51L53.8397 103.03L51.4497 103.92L51.4697 101.39Z"></path>
<path fill="white" d="M72.7299 75.42C71.8399 75.42 70.9399 75.35 70.1199 75.28C69.7269 75.2139 69.3282 75.1871 68.9299 75.2H64.3799L65.2799 72.81C65.6885 71.7092 66.2951 70.6924 67.0699 69.81C68.9665 67.5973 71.2088 65.7061 73.7099 64.21C78.3589 61.1293 83.5093 58.8824 88.9299 57.57C91.4995 56.9877 94.1252 56.6893 96.7599 56.68C98.1856 56.6654 99.6102 56.7658 101.02 56.98L104.45 57.5L102.66 60.33C102.36 60.78 102.13 61.23 101.84 61.6C100.015 63.9375 97.8231 65.9637 95.3499 67.6C91.9575 69.9805 88.2569 71.888 84.3499 73.27C80.654 74.6658 76.7404 75.3971 72.7899 75.43"></path>
<path fill="white" d="M204.18 104.97C203.724 104.967 203.271 104.889 202.84 104.74L202.54 104.67C199.76 103.775 197.177 102.356 194.93 100.49C193.93 99.75 192.99 98.93 192.02 98.1C191.05 97.27 189.86 96.31 188.74 95.42C187.256 94.1796 185.971 92.7194 184.93 91.09C183.74 89.45 182.7 87.96 181.65 86.39C180.794 85.1798 180.164 83.8246 179.79 82.39C179.49 81.2 178.22 77.17 178.22 77.17L177.32 74.26L180.32 75.01C186.59 76.57 192.26 80.01 197.63 85.45C202.47 90.3 206.58 99.33 206.51 103.21V104.85C205.74 104.94 204.965 104.99 204.19 105"></path>
<path fill="white" d="M207.28 149.51V149.08C207.35 148.7 207.35 148.33 207.42 148.08C208.242 143.149 210.044 138.433 212.72 134.21C214.986 130.346 217.887 126.891 221.3 123.99C223.567 121.965 226.201 120.393 229.06 119.36C229.36 119.29 229.58 119.21 229.95 119.14L233.01 118.24L232.64 120.93C232.56 121.3 232.56 121.75 232.49 122.12C232.385 122.997 232.235 123.868 232.04 124.73C230.862 129.703 228.763 134.411 225.85 138.61C225.184 139.522 224.434 140.369 223.61 141.14L223.16 141.59C220.947 144.076 218.415 146.258 215.63 148.08C214.36 148.83 213.02 149.58 211.75 150.32L209.96 151.32L209.66 151.4L207.05 152.22L207.28 149.51Z"></path>
<path fill="white" d="M203.96 166.37C203.484 166.355 203.009 166.305 202.54 166.22C202.307 166.175 202.081 166.098 201.87 165.99L199.71 165.32L200.71 163.32L201.84 161.45L204.52 157.2C205.386 155.875 206.335 154.606 207.36 153.4C209.829 150.725 212.725 148.478 215.93 146.75C219.313 144.865 222.861 143.291 226.53 142.05C227.881 141.613 229.291 141.387 230.71 141.38C231.158 141.367 231.607 141.394 232.05 141.46L234.44 141.68L233.44 143.92C233.281 144.24 233.154 144.575 233.06 144.92C232.775 145.687 232.441 146.435 232.06 147.16C229.486 151.806 225.951 155.849 221.69 159.02C219.073 160.849 216.271 162.398 213.33 163.64C211.169 164.703 208.89 165.505 206.54 166.03C205.722 166.292 204.868 166.42 204.01 166.41"></path>
<path fill="white" d="M193.44 167.56C193.44 167.34 193.37 167.11 193.37 166.89L192.92 165.02C192.69 164.02 192.39 162.86 192.17 161.82C191.979 160.987 191.878 160.135 191.87 159.28V157.94C191.87 156 191.87 153.94 192.02 151.94C192.329 149.097 193.033 146.31 194.11 143.66C195.323 140.18 196.976 136.87 199.03 133.81C199.515 133.156 200.039 132.531 200.6 131.94L201.2 131.27C201.336 131.082 201.514 130.927 201.72 130.82L203.96 129.03L204.71 131.72L205.08 133.51L205.37 135.08C205.9 137.69 206.37 140.23 206.94 142.84C206.98 143.286 206.98 143.734 206.94 144.18L206.79 145.18C206.72 145.55 206.72 145.85 206.64 146.18C206.4 148.943 205.85 151.67 205 154.31C203.775 158.444 201.887 162.351 199.41 165.88C198.897 166.533 198.346 167.154 197.76 167.74L197.24 168.34C197.02 168.56 196.72 168.79 196.57 168.94L194.04 170.88L193.44 167.56Z"></path>
<path fill="white" d="M182.77 186.88L181.5 185.31L182.02 184.12L182.7 183.12C183.179 182.297 183.7 181.5 184.26 180.73C189.189 173.788 196.112 168.508 204.11 165.59C207.274 164.471 210.595 163.864 213.95 163.79H216.57L216.19 166.03L216.04 166.41C215.973 166.693 215.876 166.968 215.75 167.23C214.734 169.654 213.291 171.876 211.49 173.79C205.368 180.226 197.434 184.648 188.74 186.47C187.073 186.823 185.374 187 183.67 187L182.77 186.88Z"></path>
<path fill="white" d="M81.5297 209.19C72.1297 209.19 64.8997 206.8 62.0597 204.56L61.2397 203.89L61.3897 202.77C61.6897 201.35 62.6597 200.91 69.8197 198.67C70.406 198.463 71.0036 198.289 71.6097 198.15C74.9179 196.995 78.3466 196.22 81.8298 195.84C83.1949 195.699 84.5677 195.646 85.9398 195.68H87.6497C89.9697 195.76 93.0197 195.84 96.1597 196.13C97.4481 196.291 98.7198 196.565 99.9597 196.95L100.41 197.1L103.99 198.22L107.79 199.42L106.45 201.35C106.23 201.852 105.886 202.289 105.45 202.62L105.22 202.77C104.354 203.446 103.43 204.045 102.46 204.56C99.1061 206.189 95.5419 207.344 91.8697 207.99C89.5126 208.532 87.1199 208.907 84.7097 209.11C83.7097 209.19 82.6197 209.19 81.5697 209.19"></path>
<path fill="white" d="M70.57 197.7C69.82 197.7 69.15 197.7 68.41 197.63H67.88C62.9561 197.401 58.0871 196.496 53.41 194.94C50.0837 193.906 46.9563 192.317 44.16 190.24C43.7688 189.927 43.3949 189.593 43.04 189.24C42.74 188.94 42.59 188.72 42.44 188.57L40.73 186.33L43.41 185.73L55.65 183.79C56.65 183.72 57.74 183.72 58.86 183.72H61.86C69.25 183.87 73.95 186.11 80.29 189.54C81.1513 190.048 81.9736 190.62 82.75 191.25L83.2 191.63C83.5428 191.9 83.8226 192.241 84.02 192.63L84.17 192.86L85.74 195.17L82.98 195.47L82.08 195.54C81.56 195.61 81.08 195.61 80.66 195.69C79.55 195.91 78.5 196.21 77.38 196.44C76.64 196.58 75.82 196.81 75.07 196.96C73.6142 197.489 72.0663 197.716 70.52 197.63"></path>
<path fill="#231F20" d="M45.5796 123.47C45.5746 123.43 45.5746 123.39 45.5796 123.35H44.0396C44.5296 123.62 45.0395 123.84 45.5895 124.12L45.5796 123.47Z"></path>
<path fill="#231F20" d="M108.39 33.27H108.28C108.054 33.2585 107.827 33.2856 107.61 33.35C105.515 33.632 103.461 34.159 101.49 34.92C95.5477 37.1485 90.0439 40.4048 85.2298 44.54C83.3698 46.18 81.5032 47.8967 79.6298 49.69C79.9445 47.317 80.0716 44.923 80.0098 42.53C80.0473 40.5374 79.7946 38.5499 79.2598 36.63C79.1098 36.26 78.9598 35.89 78.8898 35.74L76.7998 30.89L73.1798 34.84C72.8098 35.29 72.4298 35.66 71.9898 36.11L69.5998 38.72C66.3309 41.9663 63.8535 45.9219 62.3598 50.28C61.8398 51.78 61.4698 53.19 61.0898 54.54C60.7198 53.64 60.4198 52.75 60.0898 51.85L58.2998 45.51L54.0498 50.51L53.7498 50.88C53.4545 51.1947 53.1805 51.5287 52.9298 51.88C51.4698 54.0548 50.2936 56.4071 49.4298 58.88C48.2342 61.6804 47.4787 64.6488 47.1898 67.68C47.1098 69.55 47.1098 71.34 47.1098 73.13V74.84C46.1973 73.2527 45.07 71.799 43.7598 70.52C43.539 70.286 43.2866 70.0841 43.0098 69.92L38.6798 66.79L37.5898 72.08C37.4398 72.67 37.3698 73.2 37.2198 73.79C36.9998 74.99 36.6998 76.11 36.4698 77.23C35.2881 81.6603 35.1376 86.3025 36.0298 90.8C36.3298 92.37 36.6998 93.8 37.0298 95.28C35.4981 93.6098 33.7687 92.1322 31.8798 90.88C31.2933 90.4738 30.6707 90.1224 30.0198 89.83C29.7898 89.68 29.4998 89.61 29.2698 89.46L24.5698 86.85L24.1198 92.22V92.89C24.0029 97.2787 24.6805 101.652 26.1198 105.8C26.9596 108.451 28.0863 111.003 29.4798 113.41C29.3298 113.33 29.0998 113.26 28.9498 113.18L22.7598 110.87L24.3998 117.29L24.6998 118.48C24.9298 119.3 25.0698 120.05 25.2998 120.79C25.4617 121.429 25.5852 122.077 25.6698 122.73C25.8935 124.079 26.194 125.415 26.5698 126.73C27.7469 130.388 29.5356 133.82 31.8598 136.88C30.4498 136.5 29.0998 136.13 27.6898 135.88C27.4598 135.81 27.2398 135.81 26.9398 135.74L22.0898 135.14L22.9898 139.84L23.0598 140.13C23.1398 140.51 23.2098 140.81 23.2798 141.13C23.8675 142.997 24.7486 144.759 25.8898 146.35C27.4825 148.647 29.2835 150.793 31.2698 152.76L32.0098 153.51C33.2194 154.856 34.5593 156.078 36.0098 157.16L37.3498 158.06L38.7698 163.36L38.8498 163.58C38.8855 163.783 38.9357 163.984 38.9998 164.18C39.6677 166.138 40.6469 167.974 41.8998 169.62C45.3726 174.179 49.6167 178.095 54.4398 181.19C54.8798 181.49 55.4398 181.78 55.9998 182.19H55.4098L45.4098 183.75L43.8398 183.98L43.0998 184.13L37.5798 185.02L40.9398 189.5L41.0098 189.57C41.2045 189.866 41.429 190.14 41.6798 190.39L41.8298 190.54C42.2065 190.943 42.6333 191.296 43.0998 191.59C46.0716 193.743 49.3704 195.405 52.8698 196.51C56.2441 197.63 59.716 198.43 63.2398 198.9C60.8498 199.9 59.8098 201.06 58.0198 201.96C57.7998 202.03 62.4198 210.46 81.3698 210.83C82.4898 210.83 83.5298 210.83 84.6498 210.76C91.003 210.127 97.2199 208.515 103.08 205.98C104.131 205.419 105.134 204.774 106.08 204.05L106.31 203.9C106.901 203.435 107.385 202.848 107.73 202.18L110.34 198.3L105.86 196.88L104.29 196.36C103.02 195.99 101.83 195.54 100.64 195.24L100.19 195.09C99.5198 194.94 98.8498 194.72 98.1898 194.57L93.4898 194.05C92.8898 194.05 92.2898 193.97 91.6998 193.97V191.28C91.5678 186.351 90.5023 181.492 88.5598 176.96C86.2253 171.379 82.8905 166.272 78.7198 161.89C76.1498 159.104 73.1808 156.715 69.9098 154.8C69.6898 154.65 69.4598 154.58 69.2398 154.43L69.0198 154.28L66.5398 153.08V152.56C66.4698 150.84 66.3198 149.05 66.0898 147.26C65.889 144.142 65.1055 141.089 63.7798 138.26C63.1098 137 62.4398 135.73 61.7798 134.61C61.4898 134.09 61.1098 133.49 60.7798 132.97L60.2798 132.08C59.6898 130.96 59.0898 129.92 58.4898 128.79L58.4198 128.65C58.1074 127.94 57.5951 127.335 56.9452 126.911C56.2953 126.486 55.536 126.26 54.7598 126.26C54.5112 126.252 54.2625 126.275 54.0198 126.33L51.6298 126.56V126.64L53.3198 133.64C53.4898 133 53.6598 132.37 53.8198 131.75C53.9798 131.13 54.1898 130.48 54.3398 129.81H54.7898C55.1698 129.81 55.1698 129.96 55.4598 130.48C56.2098 131.97 57.0298 133.39 57.8498 134.81C58.8498 136.52 59.8498 138.24 60.7598 140.03C61.8844 142.473 62.5424 145.105 62.6998 147.79C62.9998 150.33 63.0698 152.86 63.2998 155.4C63.4013 157.063 63.198 158.73 62.6998 160.32C62.2498 161.96 61.7998 163.68 61.3598 165.32C60.9098 165.02 60.4598 164.8 60.0098 164.5C54.6214 157.851 51.8317 149.472 52.1598 140.92C50.5898 142.14 47.3598 146.92 49.3398 150.92C49.8037 151.855 50.3527 152.746 50.9798 153.58C54.1098 158.04 54.0398 159.02 53.9798 161.13L47.7498 159.49C44.272 158.403 41.0244 156.684 38.1698 154.42C36.6219 153.168 35.1742 151.797 33.8398 150.32C32.0151 148.457 30.343 146.451 28.8398 144.32C27.9138 143.043 27.1856 141.634 26.6798 140.14C26.5998 139.77 26.5298 139.47 26.4498 139.02C26.6045 139 26.7616 139.028 26.8998 139.1C30.2717 139.87 33.5862 140.873 36.8198 142.1L37.3498 142.34V137.78C36.4366 136.874 35.5879 135.905 34.8098 134.88C32.6577 132.109 31.0155 128.976 29.9598 125.63C29.3598 123.77 29.1398 121.83 28.6898 119.89C28.4698 118.7 28.0898 117.58 27.7998 116.31C28.4698 116.53 29.1398 116.76 29.7998 117.05C32.0786 118.128 34.1687 119.567 35.9898 121.31C36.7598 121.99 37.5098 122.7 38.2498 123.44L44.0698 123.37H43.9698C42.1691 122.209 40.5169 120.832 39.0498 119.27C37.084 117.334 35.253 115.266 33.5698 113.08C31.7908 110.45 30.4407 107.554 29.5698 104.5C28.2672 100.738 27.6606 96.7696 27.7798 92.79C27.7807 92.6111 27.8042 92.433 27.8498 92.26C28.6786 92.6507 29.4774 93.1019 30.2398 93.61C32.0721 94.919 33.7614 96.4173 35.2798 98.08C36.1398 98.98 36.9898 99.88 37.7698 100.81L37.9798 98.81L41.6998 100.61C38.2798 96.08 39.2798 82.18 39.2798 80.74C39.4235 79.7534 39.6205 78.7753 39.8698 77.81C40.3098 76.1 40.6098 74.38 41.0598 72.59C41.216 72.6805 41.3663 72.7806 41.5098 72.89C42.699 74.0704 43.7097 75.4179 44.5098 76.89C46.9224 80.8537 48.7322 85.154 49.8798 89.65C50.5498 92.41 51.2298 96.16 50.7798 98.77C50.6498 99.52 50.8998 99.5 50.7798 100.25C51.5898 102.68 51.4998 105.86 52.1198 108.17C52.2698 107.28 52.4198 106.31 52.4898 105.41L54.5798 104.59L54.8098 104.52L55.1098 104.44C55.3998 104.29 55.6998 104.22 55.9998 104.07C56.4741 103.838 56.9743 103.664 57.4898 103.55C62.3354 102.041 66.7927 99.4918 70.5498 96.08C73.7921 93.2531 76.6288 89.9923 78.9798 86.39C80.8128 83.8026 82.1987 80.926 83.0798 77.88C83.2298 77.36 83.3098 76.88 83.4498 76.24L83.5998 75.64L83.6798 75.35C84.1361 75.2301 84.5837 75.0798 85.0198 74.9C89.0733 73.4603 92.9119 71.4754 96.4298 69C99.0947 67.3069 101.443 65.1613 103.37 62.66L104.27 61.32L104.64 60.8L107.55 56.32L102.25 55.5L101.96 55.43C101.73 55.43 101.58 55.35 101.43 55.35L99.3598 55.08C101.133 53.7957 102.759 52.3202 104.21 50.68C107.223 47.2724 109.692 43.4204 111.53 39.26C111.67 38.96 111.75 38.74 111.9 38.44L112.05 38.07L114.28 32.83L108.39 33.27ZM54.0098 193.37C50.8656 192.362 47.8944 190.878 45.1998 188.97C44.8328 188.672 44.4977 188.337 44.1998 187.97C44.057 187.811 43.9329 187.637 43.8298 187.45C44.6498 187.3 45.3898 187.22 46.1398 187.07L56.1398 185.51C56.9598 185.43 58.0798 185.43 59.0498 185.43C60.2498 185.43 61.4398 185.43 62.0498 185.51C69.0498 185.66 73.5398 187.82 79.6498 191.1C80.5745 191.694 81.4536 192.356 82.2798 193.08C82.5118 193.357 82.713 193.659 82.8798 193.98C79.6227 195.176 76.1973 195.851 72.7298 195.98C72.0119 196.047 71.2908 196.073 70.5698 196.06C69.6698 196.06 68.8498 196.06 67.9598 195.98C63.1954 195.758 58.4843 194.88 53.9598 193.37M91.6298 197.47L95.8798 197.77C97.1969 197.956 98.4952 198.257 99.7598 198.67C101.48 199.12 103.12 199.67 104.91 200.31C104.096 201.501 102.957 202.435 101.63 203C99.6298 203.74 97.6298 204.71 95.5098 205.31C95.4398 205.38 91.9298 206.2 92.0798 206.2C91.8498 206.28 91.6298 206.28 91.4798 206.35C89.1924 206.869 86.8745 207.243 84.5398 207.47C83.5398 207.55 82.4598 207.55 81.4798 207.55C72.6798 207.55 65.2198 205.31 62.7598 203.29C62.0098 202.7 69.9198 200.53 72.0798 199.86C72.6798 199.64 73.2798 199.49 73.8698 199.27C76.1954 198.589 78.5641 198.064 80.9598 197.7C81.2598 197.63 81.6298 197.63 81.9598 197.55C83.2492 197.425 84.5447 197.375 85.8398 197.4H87.4798C88.9698 197.4 90.3198 197.4 91.6598 197.47M68.3998 157.93C71.3521 159.688 74.0447 161.848 76.3998 164.35C80.2681 168.469 83.3731 173.244 85.5698 178.45C87.3563 182.58 88.3438 187.012 88.4798 191.51V192.18C87.8255 191.957 87.2008 191.655 86.6198 191.28C84.8694 190.252 83.2622 188.998 81.8398 187.55C79.663 185.424 77.6568 183.131 75.8398 180.69C71.9775 175.174 69.3573 168.886 68.1598 162.26C67.9398 160.77 67.9398 159.26 67.7898 157.64C67.9692 157.769 68.1685 157.867 68.3798 157.93M64.5798 166.37L64.9498 164.95C65.1798 166.14 65.4798 167.34 65.7698 168.53C65.2498 168.16 64.7698 167.78 64.2798 167.41L64.5798 166.37ZM42.4198 162.37C43.9996 162.391 45.5736 162.566 47.1198 162.89C47.6346 163.05 48.159 163.177 48.6898 163.27C49.2898 163.49 49.9598 163.64 50.5498 163.86C54.0874 165.052 57.4504 166.71 60.5498 168.79C61.6698 169.68 62.7898 170.5 63.9098 171.4C65.7359 172.87 67.4109 174.518 68.9098 176.32C70.5953 177.994 71.848 180.053 72.5598 182.32C72.6398 182.55 72.7098 182.77 72.7898 182.99C72.8698 183.21 72.8598 183.37 72.9398 183.51C71.8198 183.29 70.6998 182.99 69.6498 182.77C67.5598 182.32 65.4798 181.95 63.4598 181.5C60.9319 180.805 58.5362 179.697 56.3698 178.22C51.8808 175.366 47.9415 171.728 44.7398 167.48C43.7216 166.148 42.9216 164.663 42.3698 163.08C42.3065 162.86 42.2564 162.636 42.2198 162.41L42.4198 162.37ZM63.3298 60.8C63.8678 57.5836 64.6672 54.4165 65.7198 51.33C67.071 47.4808 69.2604 43.9798 72.1298 41.08C73.3998 39.81 74.5198 38.47 75.7898 37.08L76.0098 37.53C76.4312 39.1388 76.6331 40.7971 76.6098 42.46C76.6898 46.71 76.0098 54.32 73.8498 58.79C73.1076 60.3269 72.1807 61.7675 71.0898 63.08C70.4198 63.9 69.7498 64.72 69.1498 65.47C67.9386 66.4658 66.8146 67.5632 65.7898 68.75C65.1432 69.553 64.5928 70.429 64.1498 71.36C64.0798 71.29 64.0798 71.29 64.0798 71.21C63.3691 67.8022 63.1169 64.3147 63.3298 60.84M63.3298 77.03H67.0598C66.9898 77.11 66.9098 77.11 66.8398 77.18C65.2301 78.3386 63.6845 79.5838 62.2098 80.91C62.5898 79.72 62.9598 78.37 63.3298 77.03ZM51.3998 80.69C50.9168 78.7275 50.6882 76.7109 50.7198 74.69C50.7198 72.46 50.6498 70.22 50.7998 67.98C51.0587 65.2825 51.7333 62.6412 52.7998 60.15C53.545 57.9618 54.5737 55.8808 55.8598 53.96C56.1598 53.58 56.4598 53.28 56.8598 52.84C57.6798 55.75 59.0198 58.36 59.8598 61.12C60.816 64.7936 61.0436 68.6189 60.5298 72.38C60.347 75.1648 59.7435 77.9059 58.7398 80.51C58.0191 82.8499 57.0432 85.1034 55.8298 87.23C55.4498 87.83 54.9998 88.35 54.6298 88.94C54.472 89.107 54.2978 89.2578 54.1098 89.39C53.8098 88.39 53.5098 87.3 53.2198 86.33C52.5398 84.47 51.9498 82.6 51.4298 80.74M79.5898 77.08C78.8029 79.7302 77.5684 82.2261 75.9398 84.46C73.6969 87.7606 71.0684 90.782 68.1098 93.46C64.7052 96.5402 60.6673 98.8374 56.2798 100.19C55.3798 100.49 54.5598 100.86 53.6698 101.19C53.5025 101.28 53.3287 101.357 53.1498 101.42C53.1627 100.428 53.3384 99.445 53.6698 98.51C54.5617 95.9425 55.8434 93.5276 57.4698 91.35C60.572 86.9468 64.3958 83.0993 68.7798 79.97C70.3862 78.8669 72.0822 77.9002 73.8498 77.08C75.8318 77.0082 77.8032 76.7572 79.7398 76.33C79.6629 76.5739 79.6126 76.8253 79.5898 77.08ZM100.78 58.86C101.01 58.86 101.15 58.94 101.53 58.94C101.15 59.53 100.78 60.13 100.41 60.65C98.704 62.8334 96.6294 64.7015 94.2798 66.17C91.1699 68.352 87.7835 70.1108 84.2098 71.4C85.2098 71.02 75.1098 73.71 71.0798 73.78C70.4798 73.78 67.2698 73.48 67.0798 73.48C67.9665 71.2054 69.5259 69.2553 71.5498 67.89C72.5498 67.14 73.5498 66.47 74.5498 65.73C82.5498 59.91 92.3798 58.94 92.8998 58.73C94.1381 58.587 95.3834 58.5135 96.6298 58.51C98.0021 58.5602 99.3707 58.6837 100.73 58.88M108.04 37.99C106.369 41.8272 104.105 45.3773 101.33 48.51C98.6892 51.4408 95.4944 53.8199 91.9298 55.51C87.9181 57.1849 83.742 58.435 79.4698 59.24H79.3998C78.897 59.2247 78.3958 59.1746 77.8998 59.09C77.7748 59.0718 77.6512 59.0451 77.5298 59.01C77.4598 57.6 78.8698 55.66 79.1698 55.28C81.7058 52.3724 84.475 49.6768 87.4498 47.22C91.9327 43.3545 97.061 40.308 102.6 38.22C104.301 37.5555 106.078 37.1021 107.89 36.87C108.092 36.8772 108.295 36.8536 108.49 36.8C108.34 37.25 108.19 37.62 108.04 37.99Z"></path>
<path fill="#231F20" d="M45.57 123.35H49.08C49.08 122.303 49.01 121.253 48.87 120.2C47.63 120.06 46.32 119.83 45.27 119.64C45.42 120.88 45.54 122.14 45.57 123.39"></path>
<path fill="#231F20" d="M232.08 139.81C231.586 139.743 231.088 139.716 230.59 139.73C229.252 139.748 227.923 139.95 226.64 140.33C226.86 140.03 227.08 139.81 227.31 139.51C230.342 135.14 232.543 130.248 233.8 125.08C234.012 124.144 234.162 123.195 234.25 122.24C234.32 121.87 234.32 121.49 234.4 121.05L235.22 115.75L230.07 117.24L229.55 117.39C229.204 117.444 228.868 117.545 228.55 117.69H228.47C232.927 111.218 235.131 103.459 234.74 95.61L234.52 91.73L230.71 92.32C228.71 92.62 225.04 95.38 224.97 95.38C223.971 96.1663 223.022 97.0147 222.13 97.92C223.141 95.0791 223.793 92.1228 224.07 89.12C224.267 86.1553 224.143 83.178 223.7 80.24C223.493 78.3468 222.961 76.5034 222.13 74.79C221.881 74.3768 221.608 73.9793 221.31 73.6L221.16 73.38L218.16 69.38L215.4 73.56L214.95 74.23L214.05 75.57C213.61 76.24 213.16 76.99 212.71 77.66C212.71 77.73 212.64 77.73 212.64 77.81C212.784 76.545 212.857 75.2731 212.86 74C212.998 71.5541 212.846 69.1005 212.41 66.69C211.779 63.7141 210.771 60.8309 209.41 58.11C208.764 56.2983 207.858 54.5904 206.72 53.04L203.96 49.61L201.35 53.08C200.697 53.9516 200.122 54.8784 199.63 55.85C199.18 54.05 198.63 52.19 198.06 50.25C196.559 45.8979 194.086 41.9447 190.83 38.69C190.01 37.87 189.19 36.97 188.44 36.07C188.07 35.63 187.69 35.25 187.25 34.81L183.67 30.93L181.5 35.78C181.43 36 181.28 36.3 181.13 36.67C180.6 38.5874 180.347 40.5709 180.38 42.56C180.353 44.9557 180.48 47.3506 180.76 49.73C178.97 47.94 177.1 46.29 175.24 44.65C170.433 40.4829 164.924 37.202 158.97 34.96C157.002 34.1888 154.946 33.6615 152.85 33.39C152.63 33.39 152.48 33.31 152.18 33.31H152.04L146.44 32.94L148.68 38.08L148.83 38.46C148.98 38.75 149.05 39.05 149.2 39.28C150.977 43.4679 153.448 47.3255 156.51 50.69C158.192 52.5293 160.069 54.1791 162.11 55.61L159.87 55.84C159.72 55.84 159.57 55.91 159.35 55.91L159.05 55.99L153.75 56.81L156.66 61.28L157.03 61.81C157.295 62.2794 157.596 62.7274 157.93 63.15C159.862 65.6462 162.21 67.7909 164.87 69.49C168.363 71.8963 172.147 73.8518 176.13 75.31L176.8 77.47L177.28 79.08C177.65 80.27 178.03 81.47 178.33 82.66C178.792 84.2502 179.493 85.7608 180.41 87.14C181.46 88.71 182.5 90.2 183.62 91.69L183.7 91.84C184.836 93.6146 186.243 95.2004 187.87 96.54C188.92 97.36 189.96 98.25 191.08 99.15L193.99 101.61C196.393 103.603 199.151 105.123 202.12 106.09L202.42 106.16C203.024 106.356 203.655 106.457 204.29 106.46H205.11L206.11 106.38C206.221 107.055 206.372 107.723 206.56 108.38C206.775 109.015 206.948 109.663 207.08 110.32L207.38 111.44L208.94 117.26L211.48 114.72C210.564 117.603 209.987 120.583 209.76 123.6C209.703 124.245 209.68 124.893 209.69 125.54V126.36L209.54 130.46L213.27 130.01C212.67 130.91 212 131.8 211.4 132.77C210.143 134.81 209.072 136.958 208.2 139.19C207.9 137.55 207.52 135.98 207.2 134.34L206.9 132.85C206.824 132.421 206.724 131.997 206.6 131.58L206.45 130.98L205.28 125.41L200.88 129.06L200.8 129.14C200.65 129.29 200.35 129.51 200.06 129.81C199.894 130.041 199.691 130.244 199.46 130.41C198.93 131 198.34 131.68 197.74 132.41C195.558 135.59 193.825 139.056 192.59 142.71C191.471 145.507 190.744 148.444 190.43 151.44C190.36 152.63 190.28 153.82 190.28 155.02L188.79 155.61H188.71C188.494 155.667 188.293 155.769 188.12 155.91C182.41 159.114 177.49 163.556 173.72 168.91C171.559 172.03 169.757 175.385 168.35 178.91C166.816 182.31 165.736 185.898 165.14 189.58V189.65C164.99 194.13 165.29 194.43 161.86 194.87C160.29 195.1 158.8 195.32 157.23 195.62C155.641 195.954 154.071 196.378 152.53 196.89C152.118 197.05 151.693 197.174 151.26 197.26C150.65 197.477 150.074 197.78 149.55 198.16L149.4 198.31L146.64 199.95V203.01L149.77 204.42L150.77 204.87C151.37 205.17 151.96 205.39 152.56 205.69C153.205 205.981 153.83 206.315 154.43 206.69C155.969 207.517 157.563 208.239 159.2 208.85L159.95 209.08C161.029 209.529 162.151 209.865 163.3 210.08C165.17 210.6 167.11 211.08 169.05 211.5C171.377 212.025 173.754 212.3 176.14 212.32C179.118 212.305 182.079 211.878 184.94 211.05L185.94 210.75C187.883 210.09 189.897 209.664 191.94 209.48L197.24 209.33L195 204.56C194.787 203.969 194.445 203.433 194 202.99L193.7 202.69C193.117 202.006 192.444 201.404 191.7 200.9L191.63 200.83C192.15 200.75 192.74 200.75 193.27 200.68C195.5 200.38 197.59 199.93 199.16 199.56C203.128 198.704 207 197.455 210.72 195.83C212.363 195.158 213.858 194.169 215.12 192.92C215.506 192.541 215.842 192.114 216.12 191.65C216.202 191.57 216.255 191.464 216.27 191.35L219.03 187.25L214.26 185.98L213.21 185.76C212.68 185.647 212.159 185.497 211.65 185.31C208.261 184.243 204.749 183.618 201.2 183.45C205.599 181.2 209.586 178.222 212.99 174.64C214.972 172.614 216.52 170.205 217.54 167.56C217.671 167.271 217.772 166.97 217.84 166.66L217.92 166.36L219.11 162.56C220.3 161.88 221.5 161.14 222.69 160.32C227.148 156.99 230.838 152.741 233.51 147.86C233.941 147.067 234.315 146.245 234.63 145.4C234.77 145.1 234.85 144.8 235 144.5L236.94 140.1L232.08 139.81ZM184.41 37.6C184.473 37.4453 184.547 37.295 184.63 37.15C185.9 38.5 187.02 39.84 188.29 41.15C191.185 44.0193 193.382 47.5161 194.71 51.37C195.935 54.9647 196.796 58.6733 197.28 62.44C196.84 64.16 196.54 65.8 196.28 67.22C196.13 68.34 195.98 69.38 195.91 70.43C195.69 70.13 195.46 69.76 195.24 69.43C194.134 68.1286 192.912 66.9304 191.59 65.85C190.84 64.95 190.09 63.98 189.35 63.08C187.17 60.9188 185.744 58.1141 185.28 55.08C184.252 51.0087 183.775 46.8181 183.86 42.62C183.798 40.9322 184 39.2451 184.46 37.62M197.59 82.91C195.533 80.9479 193.285 79.1959 190.88 77.68H191.1C191.47 77.68 191.85 77.61 192.1 77.61H196.35C196.72 79.4 197.09 81.19 197.54 82.91M158.97 48.51C156.2 45.3698 153.943 41.8129 152.28 37.97C152.13 37.6 151.98 37.23 151.75 36.78C151.953 36.7616 152.158 36.7889 152.35 36.86C154.165 37.0851 155.946 37.5352 157.65 38.2C163.195 40.2696 168.323 43.318 172.79 47.2C175.765 49.6568 178.534 52.3524 181.07 55.26C181.369 55.6162 181.646 55.9903 181.9 56.38C181.97 56.68 182.04 56.98 182.12 57.28C182.284 57.8619 182.485 58.4331 182.72 58.99C182.588 59.0705 182.433 59.1024 182.28 59.08C181.788 59.1651 181.289 59.2119 180.79 59.22C180.515 59.2315 180.239 59.208 179.97 59.15C177.456 58.9299 174.991 58.3263 172.66 57.36C171.818 56.9238 170.946 56.5495 170.05 56.24C165.792 54.5493 161.986 51.8928 158.93 48.48M177.29 72.28C173.533 70.9348 169.97 69.1025 166.69 66.83C164.362 65.3366 162.295 63.4719 160.57 61.31C160.2 60.79 159.83 60.2 159.46 59.6C159.701 59.5374 159.951 59.5105 160.2 59.52C161.528 59.3728 162.864 59.2993 164.2 59.3C165.85 59.3009 167.497 59.4515 169.12 59.75L173.37 60.64C176.44 61.76 176.37 61.69 179.12 62.64C181.623 63.7588 184.042 65.0555 186.36 66.52C187.297 67.104 188.192 67.7522 189.04 68.46L191.04 70.92L193.04 73.38C193.19 73.53 193.27 73.68 193.41 73.83L193.56 73.98L193.79 74.2H192.28C191.805 74.1887 191.33 74.2154 190.86 74.28C190.04 74.35 189.22 74.42 188.4 74.42C185.905 74.3878 183.424 74.052 181.01 73.42L179.89 73.12C178.89 72.74 178.1 72.44 177.36 72.22M204.14 103.22C203.76 103.187 203.384 103.113 203.02 103C200.466 102.153 198.092 100.837 196.02 99.12C193.93 97.48 191.91 95.69 189.82 94.05C188.417 92.8773 187.209 91.4902 186.24 89.94L183.11 85.47C182.369 84.401 181.815 83.2142 181.47 81.96C180.95 80.24 180.42 78.53 179.9 76.74C186.39 78.38 191.69 81.96 196.39 86.66C201.09 91.36 204.82 99.86 204.82 103.22C204.598 103.185 204.372 103.185 204.15 103.22M208.4 81.81C207.88 83.67 207.13 85.47 206.54 87.33C206.16 88.53 205.86 89.72 205.49 90.84C205.454 90.9911 205.404 91.1384 205.34 91.28C204.921 90.8477 204.546 90.3755 204.22 89.87C202.956 87.7761 201.967 85.5274 201.28 83.18C200.46 80.5337 199.857 77.8247 199.48 75.08C199.396 74.4632 199.346 73.8423 199.33 73.22C198.96 68.22 200.83 62.92 200.83 62.62C201.195 61.1332 201.68 59.6784 202.28 58.27C202.748 57.155 203.349 56.1007 204.07 55.13C205.024 56.3908 205.758 57.8041 206.24 59.31C207.52 61.8454 208.471 64.5338 209.07 67.31C209.457 69.4502 209.581 71.6297 209.44 73.8C209.491 76.5205 209.154 79.2344 208.44 81.86M210.75 110.86C210.45 109.67 210.23 108.7 209.93 107.65C209.167 104.555 208.913 101.356 209.18 98.18C209.391 93.4262 210.615 88.7723 212.77 84.53C214.03 82.06 215.77 79.83 217.24 77.44C217.62 76.84 218.06 76.17 218.51 75.5C218.76 75.8144 218.984 76.1489 219.18 76.5C219.84 77.8577 220.243 79.3257 220.37 80.83C220.831 83.4702 220.959 86.1579 220.75 88.83C220.233 93.1966 219.024 97.4531 217.17 101.44C216.017 104.177 214.485 106.739 212.62 109.05C212.09 109.57 211.42 110.05 210.75 110.84M213.06 126.84C213.14 125.95 213.14 125.05 213.21 124.15C213.553 119.142 214.939 114.261 217.28 109.82C218.598 107.482 220.146 105.281 221.9 103.25C223.44 101.349 225.176 99.6165 227.08 98.08C228.344 97.1144 229.725 96.3114 231.19 95.69C231.609 103.45 229.224 111.102 224.47 117.25C220.89 122.1 215.3 126.65 212.98 126.95M209.18 148.29C209.999 143.558 211.731 139.03 214.28 134.96C216.489 131.27 219.258 127.947 222.49 125.11C224.585 123.215 227.045 121.769 229.72 120.86C230.1 120.71 230.47 120.63 230.99 120.48C230.77 121.83 230.7 123.02 230.4 124.14C229.306 128.905 227.303 133.414 224.5 137.42C223.737 138.438 222.887 139.388 221.96 140.26C220.96 141.37 219.88 142.42 218.76 143.46C217.49 144.06 216.22 144.73 215.1 145.33C212.969 146.526 210.96 147.926 209.1 149.51C209.106 149.083 209.156 148.657 209.25 148.24M193.74 152.08C194.045 149.42 194.697 146.811 195.68 144.32C196.812 140.95 198.419 137.758 200.45 134.84C201.076 134.014 201.744 133.219 202.45 132.46C202.52 132.31 202.67 132.23 202.9 132.08C203.04 132.75 203.19 133.28 203.27 133.87C203.94 137 204.53 140.14 205.13 143.27C205.179 143.621 205.155 143.979 205.06 144.32C204.98 144.91 204.91 145.59 204.83 146.18C204.583 148.826 204.063 151.44 203.28 153.98C202.75 155.55 202.16 157.11 201.56 158.61C201.11 159.28 200.66 160.02 200.22 160.7C199.78 161.38 199.47 161.89 199.1 162.56L196.71 166.44C196.415 166.72 196.141 167.02 195.89 167.34C195.678 167.528 195.455 167.702 195.22 167.86C195.182 167.454 195.108 167.053 195 166.66C194.62 164.95 194.25 163.31 193.88 161.59C193.707 160.882 193.606 160.158 193.58 159.43C193.65 156.97 193.58 154.5 193.73 152.12M168.44 190.46C168.984 187.091 169.962 183.807 171.35 180.69C172.669 177.431 174.346 174.329 176.35 171.44C179.811 166.506 184.349 162.423 189.62 159.5C189.7 159.43 189.85 159.43 190 159.35C189.814 165.653 187.987 171.799 184.7 177.18C184.48 177.56 184.25 177.93 184.03 178.3C183.66 178.82 183.28 179.3 182.91 179.79C182.31 180.61 181.79 181.44 181.27 182.26C181.19 182.33 181.12 182.48 181.04 182.56C179.255 184.843 177.245 186.94 175.04 188.82C174.22 189.27 173.39 189.72 172.58 190.24C171.645 190.853 170.811 191.609 170.11 192.48C169.59 192.77 169.11 193.15 168.55 193.48C168.279 192.503 168.228 191.479 168.4 190.48M165.19 194.58L165.26 194.88H165.28L165.19 194.58ZM191.6 206.3C188.922 206.516 186.285 207.091 183.76 208.01C181.229 208.727 178.61 209.088 175.98 209.08C173.844 209.091 171.716 208.842 169.64 208.34C166.553 207.765 163.511 206.966 160.54 205.95C160.39 205.88 153.3 203.41 151.06 201.62C151.375 201.367 151.73 201.168 152.11 201.03C153.97 200.5 155.84 199.83 157.7 199.46C158.97 199.24 160.17 199.01 161.43 198.86C164.869 198.431 168.337 198.281 171.8 198.41C172.4 198.49 173.07 198.64 173.67 198.71C175.61 199.16 177.67 199.61 179.67 200.06C181.53 200.58 183.4 201.18 185.26 201.85C186.87 202.478 188.42 203.251 189.89 204.16C190.447 204.591 190.969 205.066 191.45 205.58C191.554 205.793 191.632 206.018 191.68 206.25M210.4 188.87C211.22 189.16 212.12 189.31 213.16 189.61C212.926 190.011 212.652 190.386 212.34 190.73C211.404 191.647 210.287 192.359 209.06 192.82C205.547 194.324 201.901 195.496 198.17 196.32C196.3 196.77 194.44 197.15 192.57 197.44C191.483 197.591 190.387 197.668 189.29 197.67C187.617 197.656 185.947 197.533 184.29 197.3C183.02 197.15 181.76 196.92 180.56 196.7C178.62 196.18 176.62 195.733 174.56 195.36C174.11 195.21 173.56 195.13 173.14 194.98C172.99 194.98 172.92 194.91 172.77 194.83C174.277 193.852 175.723 192.784 177.1 191.63C178.568 190.895 180.089 190.27 181.65 189.76C183.36 189.16 185.08 188.76 186.87 188.27C187.62 188.19 188.44 188.04 189.26 187.9L191.26 187.45L193.2 187.23C194.99 187.07 196.78 187 198.5 187C202.55 186.995 206.576 187.626 210.43 188.87M214.28 166.59C213.378 168.817 212.061 170.853 210.4 172.59C207.196 176.019 203.407 178.85 199.21 180.95C196.734 182.232 194.134 183.257 191.45 184.01C189.59 184.23 187.72 184.6 185.64 185.01C185.042 185.077 184.441 185.103 183.84 185.09H183.7C183.7 185.01 183.62 185.01 183.62 184.94C185.078 183.141 186.414 181.247 187.62 179.27C189.212 177.34 190.983 175.565 192.91 173.97L196.57 171.21C198.593 169.927 200.713 168.804 202.91 167.85C206.484 166.269 210.342 165.432 214.25 165.39H214.77C214.55 165.84 214.47 166.21 214.32 166.51M230.51 146.29C228.086 150.738 224.725 154.607 220.66 157.63C218.255 159.529 215.551 161.016 212.66 162.03C209.385 163.036 206.043 163.811 202.66 164.35C203.469 162.977 204.191 161.554 204.82 160.09C205.19 159.42 205.64 158.83 206.01 158.15C206.824 156.897 207.723 155.701 208.7 154.57C209.29 153.98 209.82 153.38 210.49 152.78C213.441 149.881 216.976 147.644 220.86 146.22C222.881 145.22 224.973 144.371 227.12 143.68C228.301 143.29 229.536 143.087 230.78 143.08C231.155 143.066 231.531 143.093 231.9 143.16C231.38 144.28 231 145.32 230.48 146.29"></path>
<path fill="white" d="M155.28 216.72C153.616 216.666 151.965 216.418 150.36 215.98C149.61 215.83 148.79 215.6 148.12 215.53C146.109 214.946 144.141 214.224 142.23 213.37C141.33 212.99 140.44 212.55 139.54 212.25L138.05 211.65L138.5 210.08C139.708 205.526 140.36 200.841 140.44 196.13V195.98L133.72 194.98L143.05 192.98C146.558 192.067 149.941 190.723 153.12 188.98C154.76 188.16 156.48 187.34 158.19 186.67L158.34 186.59H158.56C158.832 186.532 159.111 186.509 159.39 186.52C160.653 186.562 161.863 187.035 162.82 187.86L162.97 187.94L163.11 188.08C165.05 190.17 164.76 193.08 164.61 195.4C164.509 196.115 164.483 196.839 164.53 197.56V197.71C164.53 197.71 164.31 199.57 164.23 200.47C163.71 205.24 163.23 210.17 160.95 214.57L160.8 214.87L160.51 215.09C158.994 216.197 157.156 216.773 155.28 216.73M158.79 193.16C158.913 193.029 158.999 192.866 159.037 192.69C159.076 192.514 159.067 192.331 159.01 192.16L158.94 192.01H158.86C158.735 192.026 158.612 192.049 158.49 192.08C158.56 192.23 158.71 192.98 158.79 193.08"></path>
<path fill="#231F20" d="M159.42 188.22C160.308 188.266 161.153 188.62 161.81 189.22C163.75 191.31 162.63 194.89 162.7 197.58C162.03 203.17 161.81 208.84 159.27 213.69C158.133 214.59 156.719 215.068 155.27 215.04C152.96 215.04 150.5 214.22 148.33 213.84C145.5 213.1 142.89 211.68 140.13 210.56C141.374 205.858 142.046 201.023 142.13 196.16C144.668 196.797 147.273 197.133 149.89 197.16C153.216 197.284 156.515 196.51 159.44 194.92C159.946 194.525 160.324 193.987 160.523 193.376C160.723 192.765 160.735 192.108 160.56 191.49C160.41 190.75 159.66 190.37 158.99 190.07C157.925 190.231 156.922 190.669 156.08 191.34C156.602 192.138 156.981 193.021 157.2 193.95C155.088 194.877 152.794 195.311 150.49 195.22C149.15 195.22 147.8 195.15 146.49 195.07L143.43 194.63C148.95 193.43 153.73 190.37 158.87 188.28H159.47M159.47 184.78C159.095 184.768 158.72 184.792 158.35 184.85L157.98 184.93L157.6 185.07C155.81 185.82 154.1 186.64 152.46 187.46C149.376 189.082 146.123 190.359 142.76 191.27L139.63 191.94L138.95 191.79V192.09L124.18 195.3L138.8 197.46C138.658 201.544 138.058 205.6 137.01 209.55L136.12 212.61L139.12 213.8C140.02 214.17 140.91 214.55 141.74 214.92C143.65 215.8 145.618 216.549 147.63 217.16L147.85 217.23H148.08C148.75 217.31 149.42 217.53 150.24 217.68C151.973 218.124 153.751 218.372 155.54 218.42C157.803 218.464 160.013 217.729 161.8 216.34L162.33 215.89L162.62 215.22C165.01 210.59 165.62 205.44 166.13 200.52C166.2 199.63 166.28 198.8 166.43 197.91V197.39C166.43 196.86 166.5 196.12 166.5 195.39C166.73 192.86 166.95 189.39 164.56 186.74L164.34 186.44L164.04 186.21C162.654 185.39 161.096 184.907 159.49 184.8"></path>
<path fill="white" d="M135.7 215.08C134.918 215.064 134.14 214.963 133.38 214.78C133.113 214.699 132.838 214.652 132.56 214.64L131.82 214.48L131.37 213.89C126.923 207.357 124.557 199.632 124.58 191.73L124.51 190.01L128.16 189.86C129.51 189.79 131 189.79 132.41 189.79C134.953 189.723 137.493 190.026 139.95 190.69L140.55 190.84L140.92 191.36C141.92 192.987 142.34 194.904 142.11 196.8C141.96 202.4 141.52 208.37 138.83 213.74L138.6 214.11L138.23 214.34C137.484 214.844 136.6 215.103 135.7 215.08Z"></path>
<path fill="#231F20" d="M132.49 191.51C134.881 191.435 137.27 191.711 139.58 192.33C140.369 193.623 140.684 195.15 140.47 196.65C140.32 202.47 139.8 208.07 137.34 212.92C136.857 213.245 136.281 213.403 135.7 213.37C134.742 213.305 133.791 213.155 132.86 212.92C128.599 206.678 126.336 199.288 126.37 191.73C128.31 191.58 130.37 191.51 132.49 191.51ZM132.49 188C131 188 129.58 188.07 128.16 188.07C127.49 188.07 126.89 188.15 126.3 188.15L122.94 188.82V191.73C123.16 200.53 125.55 208.37 130.1 214.86L130.92 216.05L132.41 216.28C132.643 216.291 132.873 216.342 133.09 216.43C133.97 216.638 134.867 216.762 135.77 216.8C137.079 216.831 138.363 216.438 139.43 215.68L140.17 215.16L140.55 214.34C143.38 208.67 143.9 202.25 144.05 196.65C144.243 194.41 143.721 192.166 142.56 190.24L141.81 189.12L140.55 188.75C137.896 188.227 135.195 187.976 132.49 188Z"></path>
<path fill="white" d="M126.74 214.64C125.61 214.691 124.5 214.337 123.61 213.64L123.39 213.42L123.24 213.12C120.7 208.87 120.48 203.72 120.18 198.87V198.65L120.25 198.43C120.324 197.86 120.35 197.285 120.33 196.71C120.33 194.62 120.4 190.29 124.66 190.07L126.45 189.99L126.52 191.79C126.638 198.779 128.512 205.625 131.97 211.7L133.68 214.62L130.25 214.39C129.749 214.393 129.25 214.443 128.76 214.54C128.09 214.54 127.42 214.62 126.76 214.62"></path>
<path fill="#231F20" d="M124.95 192.08C125.089 199.367 127.067 206.502 130.7 212.82C130.62 212.82 130.25 212.53 130.1 212.53C129.1 212.53 127.86 212.82 126.74 212.82C125.998 212.851 125.266 212.644 124.65 212.23C122.34 208.35 122.12 203.5 121.89 198.8C122.34 196.63 121.22 192.01 124.65 191.86M128.01 188.05L124.51 188.28C118.69 188.58 118.51 194.62 118.51 196.63C118.53 197.082 118.503 197.534 118.43 197.98L118.36 198.42V198.87C118.58 204.02 118.88 209.32 121.64 213.94L121.94 214.54L122.46 214.91C123.688 215.817 125.184 216.289 126.71 216.25C127.462 216.259 128.213 216.185 128.95 216.03C129.32 215.96 129.694 215.91 130.07 215.88L136.78 216.33L133.35 210.58C130.031 204.757 128.236 198.191 128.13 191.49L128.01 188.05Z"></path>
<path fill="white" d="M104.82 221.87C102.17 221.87 99.66 219.93 97.91 216.65C95.0421 210.552 94.1237 203.719 95.28 197.08C95.7 194.32 98.42 192.97 99.68 192.38C99.82 192.3 99.96 192.3 100.1 192.23C101.692 191.987 103.3 191.863 104.91 191.86C107.875 191.935 110.832 192.209 113.76 192.68C115.36 192.9 117.04 193.12 118.71 193.27C119.114 193.314 119.487 193.506 119.759 193.809C120.03 194.111 120.18 194.504 120.18 194.91C120.18 195.81 120.25 196.7 120.25 197.6C120.224 201.451 120.569 205.295 121.28 209.08C121.339 209.334 121.345 209.598 121.297 209.854C121.249 210.111 121.148 210.355 121 210.57C120.865 210.769 120.691 210.939 120.488 211.068C120.285 211.197 120.058 211.283 119.82 211.32C119.47 211.32 119.12 211.39 118.77 211.39C118.802 211.735 118.722 212.08 118.541 212.375C118.361 212.671 118.091 212.9 117.77 213.03C115.715 214.067 113.832 215.416 112.19 217.03C110.306 218.9 108.14 220.463 105.77 221.66C105.621 221.74 105.458 221.791 105.29 221.81C105.158 221.867 105.014 221.891 104.87 221.88M103.54 213.6C103.337 213.828 103.214 214.116 103.19 214.42C103.19 214.79 103.75 215.42 104.52 215.91C104.38 215.69 104.31 215.47 104.17 215.24L103.54 213.6Z"></path>
<path fill="#231F20" d="M104.89 193.6C109.56 193.6 113.89 194.6 118.55 195.01C118.76 199.56 118.69 205.01 119.74 209.56C114.65 209.93 109.28 209.34 104.54 210.68C103.766 210.967 103.078 211.446 102.541 212.073C102.004 212.699 101.635 213.452 101.47 214.26C101.4 215.68 102.59 216.87 103.63 217.54C103.921 217.747 104.272 217.852 104.63 217.84C105.538 217.689 106.371 217.243 107 216.57C107.14 215.9 106 215.45 105.67 214.71L104.98 212.84C107.21 211.65 109.93 211.58 112.65 211.58H113.2C114.481 211.606 115.764 211.556 117.04 211.43C112.65 213.29 109.44 218.22 105.04 220.08H104.76C102.31 220.08 100.36 217.84 99.2496 215.75C96.572 210.004 95.7204 203.575 96.8096 197.33C97.0896 195.54 98.8996 194.57 100.29 193.89C101.9 193.75 103.43 193.6 104.9 193.6M104.9 190.09C103.226 190.099 101.556 190.223 99.8996 190.46C99.6093 190.528 99.3275 190.629 99.0596 190.76C97.6596 191.43 94.3196 193 93.6896 196.76C92.4953 203.747 93.4689 210.933 96.4796 217.35C96.4796 217.43 96.5496 217.43 96.5496 217.5C98.5496 221.38 101.64 223.62 104.92 223.62H105.4C105.744 223.613 106.084 223.538 106.4 223.4C108.925 222.166 111.232 220.527 113.23 218.55C114.744 217.023 116.485 215.738 118.39 214.74C119.145 214.438 119.749 213.848 120.07 213.1C120.545 213.053 121.004 212.902 121.414 212.656C121.824 212.411 122.174 212.077 122.44 211.68C122.996 210.819 123.194 209.775 122.99 208.77C122.295 205.108 121.96 201.387 121.99 197.66C121.99 196.66 121.92 195.79 121.92 194.9C121.918 194.07 121.611 193.269 121.058 192.65C120.505 192.03 119.744 191.636 118.92 191.54C117.32 191.39 115.64 191.17 114.04 190.94C110.999 190.42 107.924 190.122 104.84 190.05"></path>
<path fill="white" d="M153.57 148.68H172.66V142.28C175.366 145.689 179.18 148.045 183.44 148.94C185.514 149.386 187.628 149.62 189.75 149.64C196.75 149.64 202.54 147.01 206.3 142.28C207.893 144.727 210.227 146.601 212.96 147.63C215.983 148.892 219.234 149.518 222.51 149.47C227.611 149.479 232.625 148.148 237.05 145.61L237.57 145.17C242.3 140.97 242.48 135.01 242.22 130.81M242.22 130.81L242.13 130.19C241.52 127.39 242.57 126.78 240.64 125.11L240.47 123.54L241.16 120.47C241.486 118.234 241.056 115.954 239.94 113.99C239.85 113.72 239.68 113.55 239.59 113.29C238.59 111.36 237.66 109.7 233.81 107.68L233.37 107.51C229.87 106.188 226.161 105.511 222.42 105.51C217.96 105.403 213.568 106.621 209.8 109.01C208.205 110.201 206.891 111.727 205.95 113.48C205.69 113.13 205.42 112.69 205.16 112.34C203.001 109.884 200.346 107.914 197.37 106.56C194.613 105.575 191.707 105.074 188.78 105.08C184.243 104.975 179.791 106.328 176.08 108.94C174.344 110.37 172.837 112.056 171.61 113.94C171.351 113.239 171.015 112.568 170.61 111.94C168.736 109.077 165.964 106.918 162.73 105.8C159.434 104.766 155.872 104.987 152.73 106.42V106.08H120.45L119.67 108.97C119.05 111.17 118.53 113.44 118.09 115.72C117.57 113.53 117.09 111.34 116.6 109.15L115.9 106.15H95.2798L95.7998 107.9C91.5195 106.107 86.9205 105.198 82.2798 105.23C78.5651 105.195 74.8783 105.874 71.4198 107.23L71.0698 107.41C69.2485 108.308 67.6211 109.555 66.2798 111.08V94.08H46.4298V111.25H41.6998V94.08H21.2798V148.92L42.0498 149.1V130.28H46.4198L46.5098 148.94H66.5798V145.94C67.7004 146.993 69.0486 147.773 70.5198 148.22C72.9079 149.087 75.4291 149.53 77.9698 149.53C80.7669 149.589 83.5355 148.957 86.0298 147.69L86.5498 148.22L87.6098 149.01L98.6098 148.83L102.29 158.73L105.1 158.64H106.67C107.72 158.64 108.77 158.64 109.83 158.73H112.89C115.663 158.802 118.434 158.506 121.13 157.85L121.48 157.77L121.83 157.59C124.02 156.45 126.83 154 127.52 150.76L134.28 128.62V148.68H153.55"></path>
<path fill="#231F20" d="M205.86 130.46C205.95 124.76 205.42 119.24 202.01 115.04C200.309 113.048 198.184 111.463 195.79 110.4C190.36 108.4 182.91 108.73 178.27 112.15C171.7 117.32 170.39 126.6 172.75 134.49C173.98 139.49 179.15 144.3 184.23 145.26C191.5 146.75 199.23 145.61 203.67 139.57C200.874 137.749 197.914 136.193 194.83 134.92C194.192 135.948 193.252 136.752 192.138 137.223C191.024 137.694 189.791 137.808 188.61 137.55C187.497 137.385 186.448 136.928 185.57 136.225C184.691 135.522 184.015 134.599 183.61 133.55C183.35 132.68 182.82 131.45 183.44 130.55H205.86V130.46ZM185.63 118.28C187.38 116.53 190.8 117.14 192.55 118.46C193.823 119.747 194.571 121.462 194.65 123.27H183.35C183.496 121.386 184.303 119.615 185.63 118.27"></path>
<path fill="#231F20" d="M112.83 110.13C114.59 117.76 116.16 125.38 118.18 132.82C120.46 125.46 121.42 117.58 123.35 110.13H135.87L123.7 149.82C123.439 150.761 122.974 151.633 122.338 152.375C121.702 153.116 120.91 153.709 120.02 154.11C115.46 155.33 110.47 154.63 104.95 154.81L101.62 145.96L110.38 146.05C111.78 145.35 110.82 143.51 110.82 142.55L100.4 110.13H112.83Z"></path>
<path fill="#231F20" d="M99.1697 142.02C98.3797 133.17 99.4297 124.85 98.4697 116.7C98.1899 115.652 97.7045 114.671 97.0418 113.812C96.3791 112.954 95.5524 112.236 94.6097 111.7C88.3097 108.81 79.5497 108.11 72.9797 110.83C71.1993 111.624 69.7107 112.953 68.7213 114.632C67.7318 116.312 67.2909 118.258 67.4597 120.2H78.2797C78.4597 119.06 78.3697 118.1 79.5997 117.39C80.5485 116.882 81.5967 116.588 82.671 116.528C83.7454 116.467 84.82 116.642 85.8197 117.04C87.3897 117.66 87.6597 119.41 87.2197 120.9C86.9497 122.3 85.4697 122.74 84.4097 123.35C79.4097 124.75 73.8097 124.58 69.5197 127.47C66.0197 130.01 65.4097 134.21 66.0197 138.42C66.8097 141.05 69.0197 143.85 71.7097 144.64C76.6197 146.39 83.4497 146.3 87.1297 142.01C88.9697 141.92 87.7397 144.29 88.8797 145.16L99.3097 144.99C99.7397 145.08 99.3097 143.06 99.2197 141.99M87.3897 134.72C85.2897 136.91 82.9297 139.1 79.7697 138.4C79.1957 138.229 78.6649 137.937 78.213 137.544C77.7611 137.15 77.3986 136.665 77.1497 136.12C76.979 135.494 76.9533 134.837 77.0746 134.199C77.1959 133.561 77.461 132.96 77.8497 132.44C80.6497 130.34 84.1497 130.16 87.3897 129.11V134.72Z"></path>
<path fill="#231F20" d="M38.0299 115.12L50.4699 115.21V98.04H62.6499V145.17H50.2899V126.42H38.1999V145.26L25.1499 145.17V98.04H38.0299V115.12Z"></path>
<path fill="#231F20" d="M236.44 115.83C237.156 116.978 237.462 118.335 237.31 119.68H226.54C226.19 118.68 226.01 117.58 224.96 116.88C224.171 116.356 223.224 116.122 222.282 116.216C221.34 116.311 220.459 116.729 219.79 117.4C219.523 117.598 219.3 117.849 219.136 118.138C218.972 118.427 218.87 118.747 218.837 119.077C218.804 119.408 218.84 119.742 218.944 120.058C219.048 120.373 219.217 120.664 219.44 120.91C221.98 122.66 225.31 122.4 228.29 123.19C232.41 123.97 237.29 126.69 238.36 131.19C238.62 135.19 238.28 139.42 235.04 142.31C229.34 145.73 220.76 146.87 214.45 144.07C212.886 143.445 211.491 142.46 210.379 141.195C209.267 139.931 208.469 138.421 208.05 136.79C207.698 136.021 207.638 135.15 207.88 134.34H218.22C218.282 135.044 218.503 135.725 218.867 136.332C219.231 136.938 219.728 137.454 220.32 137.84C221.257 138.281 222.294 138.464 223.325 138.373C224.356 138.282 225.345 137.918 226.19 137.32C226.602 136.948 226.914 136.478 227.097 135.954C227.281 135.43 227.33 134.868 227.24 134.32C224.52 130.73 219.24 131.61 215.41 130.03C213.565 129.581 211.887 128.612 210.577 127.237C209.267 125.862 208.379 124.14 208.02 122.275C207.661 120.41 207.845 118.482 208.55 116.719C209.256 114.955 210.453 113.432 212 112.33C217.42 108.57 225.92 109 232 111.28C235.5 113.04 235.5 114.09 236.47 115.84"></path>
<path fill="#231F20" d="M167.28 114.16C168.95 117.05 168.86 120.64 168.86 124.24V144.82H157.33L157.16 122.4C157.16 122.4 157.42 118.98 154.27 118.81C152.08 118.81 150.68 118.81 149.54 122.14V144.82H138.06V110.13H148.84C148.721 111.418 148.779 112.717 149.01 113.99C152.25 110.4 156.55 108.12 161.45 109.7C163.854 110.436 165.908 112.021 167.23 114.16"></path>
</svg>
